<mxfile host="app.diagrams.net" modified="2023-05-16T18:39:00.472Z" agent="Mozilla/5.0 (Macintosh; Intel Mac OS X 10_15_7) AppleWebKit/537.36 (KHTML, like Gecko) Chrome/113.0.0.0 Safari/537.36" etag="coz5KfkBCwScHWgCME6R" version="21.3.2" type="github">
  <diagram id="C5RBs43oDa-KdzZeNtuy" name="Page-1">
    <mxGraphModel dx="721" dy="415" grid="1" gridSize="10" guides="1" tooltips="1" connect="1" arrows="1" fold="1" page="1" pageScale="1" pageWidth="827" pageHeight="1169" math="0" shadow="0">
      <root>
        <mxCell id="WIyWlLk6GJQsqaUBKTNV-0" />
        <mxCell id="WIyWlLk6GJQsqaUBKTNV-1" parent="WIyWlLk6GJQsqaUBKTNV-0" />
        <mxCell id="H00T0GyT8ZabD7D_kj2N-3" value="" style="edgeStyle=orthogonalEdgeStyle;rounded=0;orthogonalLoop=1;jettySize=auto;html=1;" edge="1" parent="WIyWlLk6GJQsqaUBKTNV-1" source="H00T0GyT8ZabD7D_kj2N-0" target="H00T0GyT8ZabD7D_kj2N-2">
          <mxGeometry relative="1" as="geometry" />
        </mxCell>
        <mxCell id="H00T0GyT8ZabD7D_kj2N-0" value="User Class" style="rounded=0;whiteSpace=wrap;html=1;" vertex="1" parent="WIyWlLk6GJQsqaUBKTNV-1">
          <mxGeometry x="160" y="190" width="130" height="60" as="geometry" />
        </mxCell>
        <mxCell id="H00T0GyT8ZabD7D_kj2N-9" value="" style="edgeStyle=orthogonalEdgeStyle;rounded=0;orthogonalLoop=1;jettySize=auto;html=1;" edge="1" parent="WIyWlLk6GJQsqaUBKTNV-1" source="H00T0GyT8ZabD7D_kj2N-2" target="H00T0GyT8ZabD7D_kj2N-8">
          <mxGeometry relative="1" as="geometry" />
        </mxCell>
        <mxCell id="H00T0GyT8ZabD7D_kj2N-2" value="Data Logic (Form)" style="whiteSpace=wrap;html=1;rounded=0;" vertex="1" parent="WIyWlLk6GJQsqaUBKTNV-1">
          <mxGeometry x="340" y="190" width="120" height="60" as="geometry" />
        </mxCell>
        <mxCell id="H00T0GyT8ZabD7D_kj2N-5" value="" style="edgeStyle=orthogonalEdgeStyle;rounded=0;orthogonalLoop=1;jettySize=auto;html=1;" edge="1" parent="WIyWlLk6GJQsqaUBKTNV-1" source="H00T0GyT8ZabD7D_kj2N-4" target="H00T0GyT8ZabD7D_kj2N-2">
          <mxGeometry relative="1" as="geometry" />
        </mxCell>
        <mxCell id="H00T0GyT8ZabD7D_kj2N-4" value="Catalogs&lt;br&gt;(Countries)" style="shape=cylinder3;whiteSpace=wrap;html=1;boundedLbl=1;backgroundOutline=1;size=15;fillColor=#ffe6cc;strokeColor=#d79b00;" vertex="1" parent="WIyWlLk6GJQsqaUBKTNV-1">
          <mxGeometry x="370" y="280" width="60" height="80" as="geometry" />
        </mxCell>
        <mxCell id="H00T0GyT8ZabD7D_kj2N-7" value="" style="edgeStyle=orthogonalEdgeStyle;rounded=0;orthogonalLoop=1;jettySize=auto;html=1;" edge="1" parent="WIyWlLk6GJQsqaUBKTNV-1" source="H00T0GyT8ZabD7D_kj2N-6" target="H00T0GyT8ZabD7D_kj2N-4">
          <mxGeometry relative="1" as="geometry" />
        </mxCell>
        <mxCell id="H00T0GyT8ZabD7D_kj2N-6" value="Labels&lt;br&gt;(localizing country names)" style="shape=parallelogram;perimeter=parallelogramPerimeter;whiteSpace=wrap;html=1;fixedSize=1;" vertex="1" parent="WIyWlLk6GJQsqaUBKTNV-1">
          <mxGeometry x="340" y="390" width="120" height="60" as="geometry" />
        </mxCell>
        <mxCell id="H00T0GyT8ZabD7D_kj2N-8" value="Script task (automated)" style="rhombus;whiteSpace=wrap;html=1;rounded=0;" vertex="1" parent="WIyWlLk6GJQsqaUBKTNV-1">
          <mxGeometry x="500" y="170" width="100" height="100" as="geometry" />
        </mxCell>
        <mxCell id="H00T0GyT8ZabD7D_kj2N-10" value="&lt;div style=&quot;text-align: left; font-size: 10px;&quot;&gt;&lt;span style=&quot;background-color: initial;&quot;&gt;&lt;font style=&quot;font-size: 10px;&quot;&gt;Crucial Note: Import packages in the properties tab&lt;/font&gt;&lt;/span&gt;&lt;/div&gt;&lt;div style=&quot;text-align: left; font-size: 10px;&quot;&gt;&lt;span style=&quot;background-color: initial;&quot;&gt;&lt;font style=&quot;font-size: 10px;&quot;&gt;Make visible also in properties tab&lt;/font&gt;&lt;/span&gt;&lt;/div&gt;" style="whiteSpace=wrap;html=1;aspect=fixed;fillColor=#FFF4C3;" vertex="1" parent="WIyWlLk6GJQsqaUBKTNV-1">
          <mxGeometry x="30" y="130" width="80" height="80" as="geometry" />
        </mxCell>
        <mxCell id="H00T0GyT8ZabD7D_kj2N-11" value="&lt;font style=&quot;font-size: 24px;&quot;&gt;Example Flow&lt;/font&gt;" style="text;strokeColor=none;align=center;fillColor=none;html=1;verticalAlign=middle;whiteSpace=wrap;rounded=0;" vertex="1" parent="WIyWlLk6GJQsqaUBKTNV-1">
          <mxGeometry x="304" y="100" width="220" height="30" as="geometry" />
        </mxCell>
      </root>
    </mxGraphModel>
  </diagram>
</mxfile>
